<?xml version="1.0" encoding="UTF-8" standalone="no"?>
<!-- Created with Inkscape (http://www.inkscape.org/) -->

<svg
   xmlns:dc="http://purl.org/dc/elements/1.1/"
   xmlns:cc="http://creativecommons.org/ns#"
   xmlns:rdf="http://www.w3.org/1999/02/22-rdf-syntax-ns#"
   xmlns:svg="http://www.w3.org/2000/svg"
   xmlns="http://www.w3.org/2000/svg"
   xmlns:xlink="http://www.w3.org/1999/xlink"
   xmlns:sodipodi="http://sodipodi.sourceforge.net/DTD/sodipodi-0.dtd"
   xmlns:inkscape="http://www.inkscape.org/namespaces/inkscape"
   width="600"
   height="200"
   id="svg2"
   version="1.1"
   inkscape:version="0.48.5 r10040"
   sodipodi:docname="mira_logo.svg">
  <sodipodi:namedview
     id="base"
     pagecolor="#ffffff"
     bordercolor="#666666"
     borderopacity="1.0"
     inkscape:pageopacity="0.0"
     inkscape:pageshadow="2"
     inkscape:zoom="2.2238934"
     inkscape:cx="185.43286"
     inkscape:cy="134.97892"
     inkscape:document-units="px"
     inkscape:current-layer="layer1"
     showgrid="false"
     inkscape:window-width="1920"
     inkscape:window-height="1018"
     inkscape:window-x="-8"
     inkscape:window-y="-8"
     inkscape:window-maximized="1">
    <inkscape:grid
       type="xygrid"
       id="grid2985"
       empspacing="5"
       visible="true"
       enabled="true"
       snapvisiblegridlinesonly="true" />
  </sodipodi:namedview>
  <defs
     id="defs4">
    <linearGradient
       inkscape:collect="always"
       id="linearGradient7465">
      <stop
         style="stop-color:#000000;stop-opacity:1;"
         offset="0"
         id="stop7467" />
      <stop
         style="stop-color:#000000;stop-opacity:0;"
         offset="1"
         id="stop7469" />
    </linearGradient>
    <linearGradient
       id="linearGradient6516">
      <stop
         id="stop6518"
         offset="0"
         style="stop-color:#000000;stop-opacity:1;" />
      <stop
         id="stop6520"
         offset="1"
         style="stop-color:#000000;stop-opacity:0;" />
    </linearGradient>
    <linearGradient
       inkscape:collect="always"
       id="linearGradient5530">
      <stop
         style="stop-color:#000000;stop-opacity:1;"
         offset="0"
         id="stop5532" />
      <stop
         style="stop-color:#000000;stop-opacity:0;"
         offset="1"
         id="stop5534" />
    </linearGradient>
    <linearGradient
       id="linearGradient4600"
       inkscape:collect="always">
      <stop
         id="stop4602"
         offset="0"
         style="stop-color:#000000;stop-opacity:1;" />
      <stop
         id="stop4604"
         offset="1"
         style="stop-color:#000000;stop-opacity:0;" />
    </linearGradient>
    <linearGradient
       gradientUnits="userSpaceOnUse"
       y2="63.550716"
       x2="90.608673"
       y1="36.772301"
       x1="63.830261"
       id="linearGradient4606"
       xlink:href="#linearGradient4600"
       inkscape:collect="always" />
    <clipPath
       id="clipPath4655"
       clipPathUnits="userSpaceOnUse">
      <rect
         ry="10"
         rx="10"
         y="20.000002"
         x="30"
         height="60"
         width="60"
         id="rect4657"
         style="fill:#4bbbdb;fill-opacity:1;stroke:none;display:inline" />
    </clipPath>
    <clipPath
       id="clipPath4659"
       clipPathUnits="userSpaceOnUse">
      <rect
         ry="10"
         rx="10"
         y="20.000002"
         x="30"
         height="60"
         width="60"
         id="rect4661"
         style="fill:#4bbbdb;fill-opacity:1;stroke:none;display:inline" />
    </clipPath>
    <clipPath
       id="clipPath4663"
       clipPathUnits="userSpaceOnUse">
      <rect
         ry="10"
         rx="10"
         y="20.000002"
         x="30"
         height="60"
         width="60"
         id="rect4665"
         style="fill:#4bbbdb;fill-opacity:1;stroke:none;display:inline" />
    </clipPath>
    <linearGradient
       inkscape:collect="always"
       xlink:href="#linearGradient5530"
       id="linearGradient5536"
       x1="44.534447"
       y1="873.88544"
       x2="103.02683"
       y2="932.37781"
       gradientUnits="userSpaceOnUse" />
    <linearGradient
       gradientUnits="userSpaceOnUse"
       y2="926.43414"
       x2="85.640472"
       y1="903.2428"
       x1="62.449127"
       id="linearGradient6522"
       xlink:href="#linearGradient6516"
       inkscape:collect="always" />
    <clipPath
       id="clipPath6532"
       clipPathUnits="userSpaceOnUse">
      <path
         inkscape:export-ydpi="511.35001"
         inkscape:export-xdpi="511.35001"
         inkscape:export-filename="C:\Users\Mark Shilton\Sandbox_Inkscape\flat_moutain_icon.png"
         style="fill:#00b2a9;fill-opacity:1;stroke:none"
         d="m 40,872.36218 40,0 c 5.54,0 10,4.46 10,10 l 0,40 c 0,5.54 -4.46,10 -10,10 l -40,0 c -5.54,0 -10,-4.46 -10,-10 l 0,-40 c 0,-5.54 4.46,-10 10,-10 z"
         id="path6534"
         inkscape:connector-curvature="0" />
    </clipPath>
    <clipPath
       id="clipPath6536"
       clipPathUnits="userSpaceOnUse">
      <path
         inkscape:export-ydpi="511.35001"
         inkscape:export-xdpi="511.35001"
         inkscape:export-filename="C:\Users\Mark Shilton\Sandbox_Inkscape\flat_moutain_icon.png"
         style="fill:#00b2a9;fill-opacity:1;stroke:none"
         d="m 40,872.36218 40,0 c 5.54,0 10,4.46 10,10 l 0,40 c 0,5.54 -4.46,10 -10,10 l -40,0 c -5.54,0 -10,-4.46 -10,-10 l 0,-40 c 0,-5.54 4.46,-10 10,-10 z"
         id="path6538"
         inkscape:connector-curvature="0" />
    </clipPath>
    <clipPath
       id="clipPath6542"
       clipPathUnits="userSpaceOnUse">
      <path
         inkscape:export-ydpi="511.35001"
         inkscape:export-xdpi="511.35001"
         inkscape:export-filename="C:\Users\Mark Shilton\Sandbox_Inkscape\flat_moutain_icon.png"
         style="fill:#00b2a9;fill-opacity:1;stroke:none"
         d="m 40,872.36218 40,0 c 5.54,0 10,4.46 10,10 l 0,40 c 0,5.54 -4.46,10 -10,10 l -40,0 c -5.54,0 -10,-4.46 -10,-10 l 0,-40 c 0,-5.54 4.46,-10 10,-10 z"
         id="path6544"
         inkscape:connector-curvature="0"
         clip-path="url(#clipPath6536)" />
    </clipPath>
    <clipPath
       id="clipPath6546"
       clipPathUnits="userSpaceOnUse">
      <path
         inkscape:export-ydpi="511.35001"
         inkscape:export-xdpi="511.35001"
         inkscape:export-filename="C:\Users\Mark Shilton\Sandbox_Inkscape\flat_moutain_icon.png"
         style="fill:#00b2a9;fill-opacity:1;stroke:none"
         d="m 40,872.36218 40,0 c 5.54,0 10,4.46 10,10 l 0,40 c 0,5.54 -4.46,10 -10,10 l -40,0 c -5.54,0 -10,-4.46 -10,-10 l 0,-40 c 0,-5.54 4.46,-10 10,-10 z"
         id="path6548"
         inkscape:connector-curvature="0"
         clip-path="url(#clipPath6536)" />
    </clipPath>
    <clipPath
       id="clipPath6550"
       clipPathUnits="userSpaceOnUse">
      <path
         inkscape:export-ydpi="511.35001"
         inkscape:export-xdpi="511.35001"
         inkscape:export-filename="C:\Users\Mark Shilton\Sandbox_Inkscape\flat_moutain_icon.png"
         style="fill:#00b2a9;fill-opacity:1;stroke:none"
         d="m 40,872.36218 40,0 c 5.54,0 10,4.46 10,10 l 0,40 c 0,5.54 -4.46,10 -10,10 l -40,0 c -5.54,0 -10,-4.46 -10,-10 l 0,-40 c 0,-5.54 4.46,-10 10,-10 z"
         id="path6552"
         inkscape:connector-curvature="0"
         clip-path="url(#clipPath6536)" />
    </clipPath>
    <linearGradient
       inkscape:collect="always"
       xlink:href="#linearGradient7465"
       id="linearGradient7471"
       x1="53.208027"
       y1="878.91711"
       x2="111.84527"
       y2="937.55438"
       gradientUnits="userSpaceOnUse"
       gradientTransform="translate(59.355362,-1.7986473)" />
    <linearGradient
       inkscape:collect="always"
       xlink:href="#linearGradient6516"
       id="linearGradient7484"
       gradientUnits="userSpaceOnUse"
       x1="62.449127"
       y1="903.2428"
       x2="85.640472"
       y2="926.43414" />
    <linearGradient
       inkscape:collect="always"
       xlink:href="#linearGradient7465"
       id="linearGradient7496"
       gradientUnits="userSpaceOnUse"
       x1="53.208027"
       y1="878.91711"
       x2="111.84527"
       y2="937.55438"
       gradientTransform="translate(-21.73325,95.986824)" />
    <linearGradient
       inkscape:collect="always"
       xlink:href="#linearGradient6516"
       id="linearGradient7498"
       gradientUnits="userSpaceOnUse"
       x1="62.449127"
       y1="903.2428"
       x2="85.640472"
       y2="926.43414" />
    <linearGradient
       inkscape:collect="always"
       xlink:href="#linearGradient6516"
       id="linearGradient7506"
       gradientUnits="userSpaceOnUse"
       x1="62.449127"
       y1="903.2428"
       x2="85.640472"
       y2="926.43414" />
    <linearGradient
       inkscape:collect="always"
       xlink:href="#linearGradient6516"
       id="linearGradient3057"
       gradientUnits="userSpaceOnUse"
       x1="62.449127"
       y1="903.2428"
       x2="85.640472"
       y2="926.43414" />
    <linearGradient
       inkscape:collect="always"
       xlink:href="#linearGradient6516"
       id="linearGradient3844"
       gradientUnits="userSpaceOnUse"
       x1="62.449127"
       y1="903.2428"
       x2="85.640472"
       y2="926.43414" />
    <linearGradient
       inkscape:collect="always"
       xlink:href="#linearGradient7465"
       id="linearGradient3858"
       gradientUnits="userSpaceOnUse"
       gradientTransform="translate(59.355362,-1.7986473)"
       x1="53.208027"
       y1="878.91711"
       x2="111.84527"
       y2="937.55438" />
    <linearGradient
       inkscape:collect="always"
       xlink:href="#linearGradient6516"
       id="linearGradient3860"
       gradientUnits="userSpaceOnUse"
       x1="62.449127"
       y1="903.2428"
       x2="85.640472"
       y2="926.43414" />
    <linearGradient
       inkscape:collect="always"
       xlink:href="#linearGradient7465"
       id="linearGradient3867"
       gradientUnits="userSpaceOnUse"
       gradientTransform="translate(291.83053,-4.0469565)"
       x1="53.208027"
       y1="878.91711"
       x2="111.84527"
       y2="937.55438" />
  </defs>
  <metadata
     id="metadata7">
    <rdf:RDF>
      <cc:Work
         rdf:about="">
        <dc:format>image/svg+xml</dc:format>
        <dc:type
           rdf:resource="http://purl.org/dc/dcmitype/StillImage" />
        <dc:title />
      </cc:Work>
    </rdf:RDF>
  </metadata>
  <g
     style="display:inline"
     inkscape:label="Icon_Base"
     inkscape:groupmode="layer"
     id="layer1"
     transform="translate(0,-852.36218)">
    <rect
       style="fill:#3f90af;fill-opacity:1;fill-rule:nonzero;stroke:#e3e3e3;stroke-width:0.40000001;stroke-linecap:round;stroke-linejoin:bevel;stroke-miterlimit:4;stroke-opacity:1;stroke-dasharray:none"
       id="rect3045"
       width="600"
       height="200"
       x="0.8993237"
       y="1.2494664"
       transform="translate(0,852.36218)" />
    <g
       id="g7508">
      <path
         inkscape:export-ydpi="511.35001"
         inkscape:export-xdpi="511.35001"
         inkscape:export-filename="C:\Users\Mark Shilton\Sandbox_Inkscape\mira_flat_pulse.png"
         inkscape:connector-curvature="0"
         id="path6611"
         d="m 99.667862,870.87603 c -6.040749,-0.20845 -10.755535,5.70731 -10,11.52205 0.0386,13.19079 -0.07755,26.38678 0.05871,39.57431 0.492327,5.26215 5.476264,8.08822 8.628792,11.74739 8.043646,7.99487 16.108536,16.14664 23.999996,23.9651 2.81429,3.03404 7.20776,3.018 11.0588,2.87865 12.32351,-0.0409 24.65214,0.0823 36.9724,-0.0625 5.59564,-0.40977 9.63685,-6.0048 8.9685,-11.4595 -0.0412,-13.16901 0.0827,-26.34388 -0.0625,-39.5092 -0.26389,-4.249 -3.58889,-6.65924 -6.24545,-9.4375 -8.81229,-8.76984 -17.73798,-17.80801 -26.75527,-26.70758 -3.90245,-3.63473 -9.43309,-2.22903 -14.23421,-2.51122 -10.79659,0 -21.59318,0 -32.389766,0 z"
         style="opacity:0.14634148;fill:url(#linearGradient7471);fill-opacity:1;stroke:none" />
      <path
         transform="translate(59.355362,-1.7986473)"
         inkscape:export-ydpi="511.35001"
         inkscape:export-xdpi="511.35001"
         inkscape:export-filename="C:\Users\Mark Shilton\Sandbox_Inkscape\mira_flat_pulse.png"
         style="fill:#00b2a9;fill-opacity:1;stroke:none"
         d="m 40,872.36218 40,0 c 5.54,0 10,4.46 10,10 l 0,40 c 0,5.54 -4.46,10 -10,10 l -40,0 c -5.54,0 -10,-4.46 -10,-10 l 0,-40 c 0,-5.54 4.46,-10 10,-10 z"
         id="rect2987"
         inkscape:connector-curvature="0"
         clip-path="url(#clipPath6550)" />
      <g
         inkscape:export-ydpi="511.35001"
         inkscape:export-xdpi="511.35001"
         inkscape:export-filename="C:\Users\Mark Shilton\Sandbox_Inkscape\mira_flat_pulse.png"
         transform="translate(58.254864,-1.7986473)"
         id="g7480">
        <path
           clip-path="url(#clipPath6542)"
           inkscape:connector-curvature="0"
           id="path5669"
           d="m 50.40625,891.01843 c -2.026253,-0.66448 -7.641431,-0.16299 -4.170556,2.67504 2.723771,2.32469 -2.051747,5.40035 -3.742527,7.19053 -2.468214,2.08112 -4.614722,4.48123 -6.84463,6.79027 -1.159748,2.94405 3.566353,4.59306 5.070756,7.04401 8.000906,7.91608 15.824578,16.06534 23.915651,23.86078 2.930064,-0.16286 4.182559,3.22144 6.368249,4.79246 3.339192,2.5989 8.527878,0.56512 12.621807,1.24066 2.581743,-1.80133 4.956452,-6.59324 7.699022,-6.47728 3.236582,1.2346 7.350705,0.27129 10.928428,0.46467 3.42175,-1.42924 5.62936,-5.25342 8.58853,-7.6167 1.74889,-2.21409 5.52706,-4.62236 5.74104,-6.96601 -3.41246,-3.39641 -6.90556,-6.7171 -10.20676,-10.16843 -1.89001,-1.85571 -3.82108,-3.66839 -5.6439,-5.59599 -1.818381,-1.78089 -3.605528,-3.48926 -5.382648,-5.31359 -1.808582,-1.99993 -4.01101,-3.69787 -5.661212,-5.82667 -2.356313,-3.37531 -6.494401,-2.28319 -10.131801,-2.44361 -3.239843,-0.32121 -5.6365,1.72984 -8.677917,-0.33112 -2.917278,0.71375 -6.079693,-0.23085 -8.916495,0.74158 -2.120107,1.05464 -3.492619,-3.67127 -5.928609,-4.06057 -1.875466,-2e-5 -3.751012,4e-5 -5.626428,-3e-5 z m 0.125,0.21875 c 1.691163,-0.014 8.458707,0.0185 3.645546,0.0239 -3.215297,0.007 -6.430175,0.0791 -9.645546,0.0698 1.998018,-0.11243 3.999968,-0.076 6,-0.0937 z m 6.125,0.28125 c 0.420217,-0.10752 0.187525,0.33052 0,0 z m -11.84375,0.0937 c 0.374214,-0.1222 0.136737,0.28377 0,0 z m 12.15625,0.21875 c 0.287748,-0.11609 0.0933,0.24217 0,0 z m -11.84375,0.0937 c 0.255385,-0.10928 0.09317,0.19608 0,0 z m 12.09375,0.1875 c 0.314154,-0.0942 0.194345,0.21513 0,0 z m -11.8125,0.0937 c 0.347088,-0.0879 0.122888,0.23237 0,0 z m 12.125,0.1875 c 0.420217,-0.10752 0.187525,0.33052 0,0 z m -11.84375,0.0937 c 0.21889,-0.0803 0.167054,0.31318 0,0 z m 12.125,0.21875 c 0.311699,-0.12454 0.14386,0.23642 0,0 z m -11.84375,0.0937 c 0.26588,-0.0873 0.110118,0.21544 0,0 z m 12.125,0.1875 c 0.348198,-0.12885 0.179821,0.23067 0,0 z m -11.8125,0.0937 0.126552,0.0621 -0.126552,-0.0621 z m 12.09375,0.1875 c 0.348198,-0.12885 0.179821,0.23067 0,0 z m -11.8125,0.0937 0.126552,0.0621 -0.126552,-0.0621 z m 12.125,0.1875 c 0.388596,-0.099 0.153054,0.25577 0,0 z m -11.84375,0.0937 0.126552,0.0621 -0.126552,-0.0621 z m 12.09375,0.1875 c 0.354069,-0.096 0.245663,0.30898 0,0 z m 0.3125,0.3125 c 0.258232,-0.11739 0.163787,0.25271 0,0 z m 0.28125,0.28125 0.09432,0.0322 -0.09432,-0.0322 z m 2.90625,0.46875 c 2.959116,-0.008 9.500241,-0.0183 10.195891,0.10473 -3.23975,0.0329 -9.461206,-0.42472 -10.82601,0.53093 l 0.283333,-0.29086 0.346786,-0.3448 z m 13.65625,0 c 2.17392,0.001 6.873811,-0.01 7.411454,0.0232 -2.470446,-0.016 -4.94153,0.0528 -7.411454,-0.0232 z m -3.4375,0.34375 c 1.250804,-0.52155 -0.07238,0.49493 0,0 z m 0.71875,0.0312 c 0.707929,-0.29486 0.01356,0.26552 0,0 z m -25.25,0.15625 c -4.224081,4.48103 -8.52031,8.89693 -12.96875,13.15625 4.257004,-4.45019 8.71331,-8.70455 12.96875,-13.15625 z m 24.96875,0.125 c 0.707929,-0.29486 0.01356,0.26552 0,0 z m 0.53125,0.0312 c 0.518524,-0.37692 0.207488,0.322 0,0 z m -0.25,0.25 c 0.871469,-0.27761 -0.09685,0.2676 0,0 z m 0.5625,0.0312 c 0.518524,-0.37692 0.207488,0.322 0,0 z m -0.25,0.25 c 0.825487,-0.33308 -0.118015,0.35924 0,0 z m 0.5625,0.0312 c 0.550059,-0.21835 -0.03322,0.21589 0,0 z m -0.28125,0.28125 c 0.550059,-0.21835 -0.03322,0.21589 0,0 z m -38.15625,12.0625 c 0.359955,0.0262 -0.529183,0.28748 0,0 z"
           style="opacity:0.08399999;fill:url(#linearGradient7484);fill-opacity:1;fill-rule:nonzero;stroke:none"
           inkscape:export-filename="C:\Users\Mark Shilton\Sandbox_Inkscape\mira_flat_pulse.png"
           inkscape:export-xdpi="511.35001"
           inkscape:export-ydpi="511.35001" />
        <path
           clip-path="url(#clipPath6546)"
           style="fill:#000000;fill-opacity:1;fill-rule:nonzero;stroke:#000000;stroke-width:0.40000001;stroke-linejoin:bevel;stroke-miterlimit:4;stroke-opacity:1;stroke-dasharray:none"
           d="m 50.094998,890.71535 c -4.43893,0 -6.22835,0.0395 -6.28125,0.125 -0.0431,0.0698 0.73714,0.9234 1.875,2.0625 1.07269,1.07387 1.96875,2.0037 1.96875,2.0625 0,0.0588 -2.98587,3.07998 -6.625,6.71875 -3.63913,3.63877 -6.625,6.6808 -6.625,6.75 0,0.0692 0.0823,0.1576 0.15625,0.1875 0.074,0.0299 2.64282,0.0575 5.71875,0.0625 l 5.59375,0 7.03125,-7.03125 c 3.86209,-3.86041 7,-7.06755 7,-7.15625 0,-0.0887 -0.79076,-0.97697 -1.78125,-1.96875 l -1.8125,-1.8125 -6.21875,0 z m 0.125,0.21875 6,0 1.6875,1.6875 c 0.93128,0.93265 1.6875,1.7867 1.6875,1.875 0,0.0883 -3.07131,3.22791 -6.84375,7 l -6.875,6.875 -0.0937,0 -5.40625,0 c -3.03244,0 -5.53125,-0.0493 -5.53125,-0.0937 0,-0.0446 2.95296,-3.04707 6.5625,-6.65625 3.60955,-3.60918 6.5625,-6.59625 6.5625,-6.65625 0,-0.06 -0.83948,-0.96575 -1.875,-2 -1.03553,-1.03426 -1.875,-1.8925 -1.875,-1.9375 0,-0.0451 2.70042,-0.0937 6,-0.0937 z m -4.4375,17.4375 6.8125,-6.84375 c 3.74554,-3.76932 6.8125,-6.93358 6.8125,-7.03125 0,-0.0977 -0.74783,-0.923 -1.65625,-1.84375 l -1.65625,-1.6875 -4.65625,0 c -2.5687,0 -5.19348,0.0414 -5.8125,0.0937 l -1.125,0.0937 1.8125,1.90625 1.78125,1.90625 -5.34375,5.40625 c -2.92482,2.98188 -5.84263,5.94457 -6.5,6.59375 l -1.1875,1.1875 2.625,0.0937 c 1.44253,0.0434 3.83496,0.0763 5.34375,0.0937 l 2.75,0.0312 z m 16.21875,-14 -9.96875,10 c -5.93327,5.93353 -9.9816,10.02245 -9.9375,10.09375 l 0,0.0312 c 0.0531,0.086 1.71758,0.0919 5.8125,0.0937 l 5.71875,0.0312 9.9375,-9.96875 c 5.45869,-5.47919 9.90625,-10.0402 9.90625,-10.125 0,-0.13187 -0.81683,-0.15625 -5.71875,-0.15625 l -5.75,0 z m 13.5625,0 0,0.0312 -4.40625,4.40625 -2.5,2.46875 c -0.95073,0.95031 -1.61178,1.6329 -2.4375,2.46875 -0.19211,0.1942 -0.75943,0.75735 -0.875,0.875 -0.17753,0.18073 -0.1732,0.2008 -0.34375,0.375 -1.76796,1.80237 -3.07342,3.14168 -3.15625,3.28125 -0.003,0.005 -0.0937,0.0916 -0.0937,0.0937 0,0.0361 0.0249,0.0568 0.0312,0.0937 0.009,0.0629 0.0162,0.0984 0.0312,0.125 0.004,0.007 -0.005,0.0266 0,0.0312 7.2e-4,7.2e-4 0.0601,-7e-4 0.0625,0 0.0629,0.0187 0.66191,0.0522 1.65625,0.0625 0.16847,0.002 0.11102,-0.002 0.3125,0 1.00429,0.009 2.23706,0 3.65625,0 0.6539,10e-4 0.95323,-4.9e-4 1.625,0 l 3.96875,0 4.71875,-4.71875 c 1.08552,-1.08657 1.46517,-1.46238 2.3125,-2.3125 1.72645,-1.72586 3.03141,-3.04033 4.1875,-4.21875 0.95194,-0.97033 1.8745,-1.90563 2.3125,-2.375 0.14664,-0.15714 0.13831,-0.15778 0.21875,-0.25 0.0581,-0.0646 0.0276,-0.0527 0.0625,-0.0937 0.0496,-0.0601 0.19188,-0.21167 0.1875,-0.21875 -0.001,-0.002 -0.0284,0.002 -0.0312,0 -0.009,-0.009 -0.1956,-0.0202 -0.3125,-0.0312 -0.0619,-0.004 -0.20217,-0.0274 -0.28125,-0.0312 -0.0247,-10e-4 -0.22167,0.001 -0.25,0 -0.86071,-0.032 -2.38267,-0.0625 -4.9375,-0.0625 l -5.71875,0 z m -13.4375,0.21875 5.46875,0 c 3.0029,0 5.4375,0.0494 5.4375,0.0937 0,0.0445 -4.41286,4.4756 -9.8125,9.875 l -9.75,9.71875 -0.0625,0.0937 -5.46875,0 c -3.0029,0 -5.4375,-0.018 -5.4375,-0.0625 0,-0.0445 4.41285,-4.50685 9.8125,-9.90625 l 9.8125,-9.8125 z m -8.65625,19.6875 9.625,-9.6875 c 7.54596,-7.62532 9.54405,-9.73308 9.34375,-9.8125 -0.14014,-0.0556 -2.52182,-0.0881 -5.28125,-0.0937 l -5.03125,-0.0312 -5.53125,5.5625 c -3.04272,3.06334 -7.40663,7.47949 -9.71875,9.8125 l -4.21875,4.25 5.40625,0 5.40625,0 z m 22.3125,-19.6875 3.75,0 1.71875,0 c 1.25562,0.003 2.77,0.0256 3.15625,0.0312 -0.6084,-0.009 -2.77602,2.7e-4 -4.84375,0 l -3.78125,0 0,-0.0312 z m 10.90625,0.0937 c 4.7e-4,4.4e-4 0.0312,-4.3e-4 0.0312,0 0,2.1e-4 -0.0311,0.0309 -0.0312,0.0312 0.002,-0.006 0.003,-0.0285 0,-0.0312 z m -0.5625,0.0937 c 0.002,0.002 0.0301,-0.002 0.0312,0 0.008,0.0115 4.6e-4,0.0451 0,0.0625 3.6e-4,-0.0243 -0.0154,-0.0505 -0.0312,-0.0625 z m -0.0937,0.28125 c -0.0916,0.13439 -0.35192,0.41999 -0.59375,0.6875 0.27718,-0.30426 0.49964,-0.54899 0.59375,-0.6875 z m -6.75,7.09375 -0.9375,1 -5.25,5.21875 6.1875,-6.21875 z m -16.28125,5.25 c -0.8916,0.8993 -0.93435,0.96875 -0.90625,0.96875 l -0.0937,0 1,-0.96875 z"
           id="path5574"
           inkscape:connector-curvature="0"
           inkscape:export-filename="C:\Users\Mark Shilton\Sandbox_Inkscape\mira_flat_pulse.png"
           inkscape:export-xdpi="511.35001"
           inkscape:export-ydpi="511.35001" />
      </g>
    </g>
    <path
       style="fill:#000000;fill-opacity:1;fill-rule:nonzero;stroke:none"
       d=""
       id="path5585"
       inkscape:connector-curvature="0"
       transform="translate(0,852.36218)" />
    <path
       style="fill:#000000;fill-opacity:1;fill-rule:nonzero;stroke:none"
       d=""
       id="path5587"
       inkscape:connector-curvature="0"
       transform="translate(0,852.36218)" />
    <path
       style="fill:#000000;fill-opacity:1;fill-rule:nonzero;stroke:none"
       d=""
       id="path5589"
       inkscape:connector-curvature="0"
       transform="translate(0,852.36218)" />
    <path
       style="fill:#000000;fill-opacity:1;fill-rule:nonzero;stroke:none"
       d=""
       id="path5591"
       inkscape:connector-curvature="0"
       transform="translate(0,852.36218)" />
    <path
       style="fill:#000000;fill-opacity:1;fill-rule:nonzero;stroke:none"
       d=""
       id="path5595"
       inkscape:connector-curvature="0"
       transform="translate(0,852.36218)" />
    <path
       style="fill:#000000;fill-opacity:1;fill-rule:nonzero;stroke:none"
       d=""
       id="path5597"
       inkscape:connector-curvature="0"
       transform="translate(0,852.36218)" />
    <path
       style="fill:#000000;fill-opacity:1;fill-rule:nonzero;stroke:none"
       d=""
       id="path5599"
       inkscape:connector-curvature="0"
       transform="translate(0,852.36218)" />
    <path
       style="fill:#000000;fill-opacity:1;fill-rule:nonzero;stroke:none"
       d=""
       id="path5601"
       inkscape:connector-curvature="0"
       transform="translate(0,852.36218)" />
    <path
       style="fill:#000000;fill-opacity:1;fill-rule:nonzero;stroke:none"
       d=""
       id="path5603"
       inkscape:connector-curvature="0"
       transform="translate(0,852.36218)" />
    <path
       style="fill:#000000;fill-opacity:1;fill-rule:nonzero;stroke:none"
       d=""
       id="path5605"
       inkscape:connector-curvature="0"
       transform="translate(0,852.36218)" />
    <path
       style="fill:#000000;fill-opacity:1;fill-rule:nonzero;stroke:#000000;stroke-width:19.87243271;stroke-linecap:round;stroke-linejoin:round;stroke-miterlimit:4;stroke-opacity:1;stroke-dasharray:none"
       d=""
       id="path5608"
       inkscape:connector-curvature="0"
       transform="translate(0,852.36218)" />
    <path
       style="fill:#000000;fill-opacity:1;fill-rule:nonzero;stroke:#000000;stroke-width:19.87243271;stroke-linecap:round;stroke-linejoin:round;stroke-miterlimit:4;stroke-opacity:1;stroke-dasharray:none"
       d=""
       id="path5610"
       inkscape:connector-curvature="0"
       transform="translate(0,852.36218)" />
    <path
       style="fill:#000000;fill-opacity:1;fill-rule:nonzero;stroke:#000000;stroke-width:19.87243271;stroke-linecap:round;stroke-linejoin:round;stroke-miterlimit:4;stroke-opacity:1;stroke-dasharray:none"
       d=""
       id="path5612"
       inkscape:connector-curvature="0"
       transform="translate(0,852.36218)" />
    <path
       style="fill:#000000;fill-opacity:1;fill-rule:nonzero;stroke:#000000;stroke-width:19.87243271;stroke-linecap:round;stroke-linejoin:round;stroke-miterlimit:4;stroke-opacity:1;stroke-dasharray:none"
       d=""
       id="path5614"
       inkscape:connector-curvature="0"
       transform="translate(0,852.36218)" />
    <path
       style="fill:#000000;fill-opacity:1;fill-rule:nonzero;stroke:#000000;stroke-width:19.87243271;stroke-linecap:round;stroke-linejoin:round;stroke-miterlimit:4;stroke-opacity:1;stroke-dasharray:none"
       d=""
       id="path5616"
       inkscape:connector-curvature="0"
       transform="translate(0,852.36218)" />
    <g
       id="g7500"
       transform="translate(4.4966184,-98.02628)"
       inkscape:export-filename="C:\Users\Mark Shilton\Sandbox_Inkscape\Mira_AppLogo\mira_pulse144x144.png"
       inkscape:export-xdpi="216"
       inkscape:export-ydpi="216">
      <path
         transform="translate(-21.73325,95.986824)"
         clip-path="url(#clipPath6550)"
         inkscape:connector-curvature="0"
         id="path7488"
         d="m 40,872.36218 40,0 c 5.54,0 10,4.46 10,10 l 0,40 c 0,5.54 -4.46,10 -10,10 l -40,0 c -5.54,0 -10,-4.46 -10,-10 l 0,-40 c 0,-5.54 4.46,-10 10,-10 z"
         style="fill:#00b2a9;fill-opacity:1;stroke:none"
         inkscape:export-filename="C:\Users\Mark Shilton\Sandbox_Inkscape\mira_flat_pulse.png"
         inkscape:export-xdpi="511.35001"
         inkscape:export-ydpi="511.35001" />
      <g
         id="g7490"
         transform="translate(-22.833748,95.986824)"
         inkscape:export-filename="C:\Users\Mark Shilton\Sandbox_Inkscape\mira_flat_pulse.png"
         inkscape:export-xdpi="511.35001"
         inkscape:export-ydpi="511.35001">
        <path
           inkscape:export-ydpi="511.35001"
           inkscape:export-xdpi="511.35001"
           inkscape:export-filename="C:\Users\Mark Shilton\Sandbox_Inkscape\mira_flat_pulse.png"
           style="opacity:0.08399999;fill:url(#linearGradient7506);fill-opacity:1;fill-rule:nonzero;stroke:none"
           d="m 50.40625,891.01843 c -2.026253,-0.66448 -7.641431,-0.16299 -4.170556,2.67504 2.723771,2.32469 -2.051747,5.40035 -3.742527,7.19053 -2.468214,2.08112 -4.614722,4.48123 -6.84463,6.79027 -1.159748,2.94405 3.566353,4.59306 5.070756,7.04401 8.000906,7.91608 15.824578,16.06534 23.915651,23.86078 2.930064,-0.16286 4.182559,3.22144 6.368249,4.79246 3.339192,2.5989 8.527878,0.56512 12.621807,1.24066 2.581743,-1.80133 4.956452,-6.59324 7.699022,-6.47728 3.236582,1.2346 7.350705,0.27129 10.928428,0.46467 3.42175,-1.42924 5.62936,-5.25342 8.58853,-7.6167 1.74889,-2.21409 5.52706,-4.62236 5.74104,-6.96601 -3.41246,-3.39641 -6.90556,-6.7171 -10.20676,-10.16843 -1.89001,-1.85571 -3.82108,-3.66839 -5.6439,-5.59599 -1.818381,-1.78089 -3.605528,-3.48926 -5.382648,-5.31359 -1.808582,-1.99993 -4.01101,-3.69787 -5.661212,-5.82667 -2.356313,-3.37531 -6.494401,-2.28319 -10.131801,-2.44361 -3.239843,-0.32121 -5.6365,1.72984 -8.677917,-0.33112 -2.917278,0.71375 -6.079693,-0.23085 -8.916495,0.74158 -2.120107,1.05464 -3.492619,-3.67127 -5.928609,-4.06057 -1.875466,-2e-5 -3.751012,4e-5 -5.626428,-3e-5 z m 0.125,0.21875 c 1.691163,-0.014 8.458707,0.0185 3.645546,0.0239 -3.215297,0.007 -6.430175,0.0791 -9.645546,0.0698 1.998018,-0.11243 3.999968,-0.076 6,-0.0937 z m 6.125,0.28125 c 0.420217,-0.10752 0.187525,0.33052 0,0 z m -11.84375,0.0937 c 0.374214,-0.1222 0.136737,0.28377 0,0 z m 12.15625,0.21875 c 0.287748,-0.11609 0.0933,0.24217 0,0 z m -11.84375,0.0937 c 0.255385,-0.10928 0.09317,0.19608 0,0 z m 12.09375,0.1875 c 0.314154,-0.0942 0.194345,0.21513 0,0 z m -11.8125,0.0937 c 0.347088,-0.0879 0.122888,0.23237 0,0 z m 12.125,0.1875 c 0.420217,-0.10752 0.187525,0.33052 0,0 z m -11.84375,0.0937 c 0.21889,-0.0803 0.167054,0.31318 0,0 z m 12.125,0.21875 c 0.311699,-0.12454 0.14386,0.23642 0,0 z m -11.84375,0.0937 c 0.26588,-0.0873 0.110118,0.21544 0,0 z m 12.125,0.1875 c 0.348198,-0.12885 0.179821,0.23067 0,0 z m -11.8125,0.0937 0.126552,0.0621 -0.126552,-0.0621 z m 12.09375,0.1875 c 0.348198,-0.12885 0.179821,0.23067 0,0 z m -11.8125,0.0937 0.126552,0.0621 -0.126552,-0.0621 z m 12.125,0.1875 c 0.388596,-0.099 0.153054,0.25577 0,0 z m -11.84375,0.0937 0.126552,0.0621 -0.126552,-0.0621 z m 12.09375,0.1875 c 0.354069,-0.096 0.245663,0.30898 0,0 z m 0.3125,0.3125 c 0.258232,-0.11739 0.163787,0.25271 0,0 z m 0.28125,0.28125 0.09432,0.0322 -0.09432,-0.0322 z m 2.90625,0.46875 c 2.959116,-0.008 9.500241,-0.0183 10.195891,0.10473 -3.23975,0.0329 -9.461206,-0.42472 -10.82601,0.53093 l 0.283333,-0.29086 0.346786,-0.3448 z m 13.65625,0 c 2.17392,0.001 6.873811,-0.01 7.411454,0.0232 -2.470446,-0.016 -4.94153,0.0528 -7.411454,-0.0232 z m -3.4375,0.34375 c 1.250804,-0.52155 -0.07238,0.49493 0,0 z m 0.71875,0.0312 c 0.707929,-0.29486 0.01356,0.26552 0,0 z m -25.25,0.15625 c -4.224081,4.48103 -8.52031,8.89693 -12.96875,13.15625 4.257004,-4.45019 8.71331,-8.70455 12.96875,-13.15625 z m 24.96875,0.125 c 0.707929,-0.29486 0.01356,0.26552 0,0 z m 0.53125,0.0312 c 0.518524,-0.37692 0.207488,0.322 0,0 z m -0.25,0.25 c 0.871469,-0.27761 -0.09685,0.2676 0,0 z m 0.5625,0.0312 c 0.518524,-0.37692 0.207488,0.322 0,0 z m -0.25,0.25 c 0.825487,-0.33308 -0.118015,0.35924 0,0 z m 0.5625,0.0312 c 0.550059,-0.21835 -0.03322,0.21589 0,0 z m -0.28125,0.28125 c 0.550059,-0.21835 -0.03322,0.21589 0,0 z m -38.15625,12.0625 c 0.359955,0.0262 -0.529183,0.28748 0,0 z"
           id="path7492"
           inkscape:connector-curvature="0"
           clip-path="url(#clipPath6542)" />
        <path
           inkscape:export-ydpi="511.35001"
           inkscape:export-xdpi="511.35001"
           inkscape:export-filename="C:\Users\Mark Shilton\Sandbox_Inkscape\mira_flat_pulse.png"
           inkscape:connector-curvature="0"
           id="path7494"
           d="m 50.094998,890.71535 c -4.43893,0 -6.22835,0.0395 -6.28125,0.125 -0.0431,0.0698 0.73714,0.9234 1.875,2.0625 1.07269,1.07387 1.96875,2.0037 1.96875,2.0625 0,0.0588 -2.98587,3.07998 -6.625,6.71875 -3.63913,3.63877 -6.625,6.6808 -6.625,6.75 0,0.0692 0.0823,0.1576 0.15625,0.1875 0.074,0.0299 2.64282,0.0575 5.71875,0.0625 l 5.59375,0 7.03125,-7.03125 c 3.86209,-3.86041 7,-7.06755 7,-7.15625 0,-0.0887 -0.79076,-0.97697 -1.78125,-1.96875 l -1.8125,-1.8125 -6.21875,0 z m 0.125,0.21875 6,0 1.6875,1.6875 c 0.93128,0.93265 1.6875,1.7867 1.6875,1.875 0,0.0883 -3.07131,3.22791 -6.84375,7 l -6.875,6.875 -0.0937,0 -5.40625,0 c -3.03244,0 -5.53125,-0.0493 -5.53125,-0.0937 0,-0.0446 2.95296,-3.04707 6.5625,-6.65625 3.60955,-3.60918 6.5625,-6.59625 6.5625,-6.65625 0,-0.06 -0.83948,-0.96575 -1.875,-2 -1.03553,-1.03426 -1.875,-1.8925 -1.875,-1.9375 0,-0.0451 2.70042,-0.0937 6,-0.0937 z m -4.4375,17.4375 6.8125,-6.84375 c 3.74554,-3.76932 6.8125,-6.93358 6.8125,-7.03125 0,-0.0977 -0.74783,-0.923 -1.65625,-1.84375 l -1.65625,-1.6875 -4.65625,0 c -2.5687,0 -5.19348,0.0414 -5.8125,0.0937 l -1.125,0.0937 1.8125,1.90625 1.78125,1.90625 -5.34375,5.40625 c -2.92482,2.98188 -5.84263,5.94457 -6.5,6.59375 l -1.1875,1.1875 2.625,0.0937 c 1.44253,0.0434 3.83496,0.0763 5.34375,0.0937 l 2.75,0.0312 z m 16.21875,-14 -9.96875,10 c -5.93327,5.93353 -9.9816,10.02245 -9.9375,10.09375 l 0,0.0312 c 0.0531,0.086 1.71758,0.0919 5.8125,0.0937 l 5.71875,0.0312 9.9375,-9.96875 c 5.45869,-5.47919 9.90625,-10.0402 9.90625,-10.125 0,-0.13187 -0.81683,-0.15625 -5.71875,-0.15625 l -5.75,0 z m 13.5625,0 0,0.0312 -4.40625,4.40625 -2.5,2.46875 c -0.95073,0.95031 -1.61178,1.6329 -2.4375,2.46875 -0.19211,0.1942 -0.75943,0.75735 -0.875,0.875 -0.17753,0.18073 -0.1732,0.2008 -0.34375,0.375 -1.76796,1.80237 -3.07342,3.14168 -3.15625,3.28125 -0.003,0.005 -0.0937,0.0916 -0.0937,0.0937 0,0.0361 0.0249,0.0568 0.0312,0.0937 0.009,0.0629 0.0162,0.0984 0.0312,0.125 0.004,0.007 -0.005,0.0266 0,0.0312 7.2e-4,7.2e-4 0.0601,-7e-4 0.0625,0 0.0629,0.0187 0.66191,0.0522 1.65625,0.0625 0.16847,0.002 0.11102,-0.002 0.3125,0 1.00429,0.009 2.23706,0 3.65625,0 0.6539,10e-4 0.95323,-4.9e-4 1.625,0 l 3.96875,0 4.71875,-4.71875 c 1.08552,-1.08657 1.46517,-1.46238 2.3125,-2.3125 1.72645,-1.72586 3.03141,-3.04033 4.1875,-4.21875 0.95194,-0.97033 1.8745,-1.90563 2.3125,-2.375 0.14664,-0.15714 0.13831,-0.15778 0.21875,-0.25 0.0581,-0.0646 0.0276,-0.0527 0.0625,-0.0937 0.0496,-0.0601 0.19188,-0.21167 0.1875,-0.21875 -0.001,-0.002 -0.0284,0.002 -0.0312,0 -0.009,-0.009 -0.1956,-0.0202 -0.3125,-0.0312 -0.0619,-0.004 -0.20217,-0.0274 -0.28125,-0.0312 -0.0247,-10e-4 -0.22167,0.001 -0.25,0 -0.86071,-0.032 -2.38267,-0.0625 -4.9375,-0.0625 l -5.71875,0 z m -13.4375,0.21875 5.46875,0 c 3.0029,0 5.4375,0.0494 5.4375,0.0937 0,0.0445 -4.41286,4.4756 -9.8125,9.875 l -9.75,9.71875 -0.0625,0.0937 -5.46875,0 c -3.0029,0 -5.4375,-0.018 -5.4375,-0.0625 0,-0.0445 4.41285,-4.50685 9.8125,-9.90625 l 9.8125,-9.8125 z m -8.65625,19.6875 9.625,-9.6875 c 7.54596,-7.62532 9.54405,-9.73308 9.34375,-9.8125 -0.14014,-0.0556 -2.52182,-0.0881 -5.28125,-0.0937 l -5.03125,-0.0312 -5.53125,5.5625 c -3.04272,3.06334 -7.40663,7.47949 -9.71875,9.8125 l -4.21875,4.25 5.40625,0 5.40625,0 z m 22.3125,-19.6875 3.75,0 1.71875,0 c 1.25562,0.003 2.77,0.0256 3.15625,0.0312 -0.6084,-0.009 -2.77602,2.7e-4 -4.84375,0 l -3.78125,0 0,-0.0312 z m 10.90625,0.0937 c 4.7e-4,4.4e-4 0.0312,-4.3e-4 0.0312,0 0,2.1e-4 -0.0311,0.0309 -0.0312,0.0312 0.002,-0.006 0.003,-0.0285 0,-0.0312 z m -0.5625,0.0937 c 0.002,0.002 0.0301,-0.002 0.0312,0 0.008,0.0115 4.6e-4,0.0451 0,0.0625 3.6e-4,-0.0243 -0.0154,-0.0505 -0.0312,-0.0625 z m -0.0937,0.28125 c -0.0916,0.13439 -0.35192,0.41999 -0.59375,0.6875 0.27718,-0.30426 0.49964,-0.54899 0.59375,-0.6875 z m -6.75,7.09375 -0.9375,1 -5.25,5.21875 6.1875,-6.21875 z m -16.28125,5.25 c -0.8916,0.8993 -0.93435,0.96875 -0.90625,0.96875 l -0.0937,0 1,-0.96875 z"
           style="fill:#000000;fill-opacity:1;fill-rule:nonzero;stroke:#000000;stroke-width:0.40000001;stroke-linejoin:bevel;stroke-miterlimit:4;stroke-opacity:1;stroke-dasharray:none"
           clip-path="url(#clipPath6546)" />
      </g>
    </g>
    <g
       id="g3838"
       transform="translate(9.8925605,0)">
      <path
         inkscape:export-ydpi="511.35001"
         inkscape:export-xdpi="511.35001"
         inkscape:export-filename="C:\Users\Mark Shilton\Sandbox_Inkscape\mira_flat_pulse.png"
         style="fill:#a3a3a3;fill-opacity:1;stroke:none"
         d="m 40,872.36218 40,0 c 5.54,0 10,4.46 10,10 l 0,40 c 0,5.54 -4.46,10 -10,10 l -40,0 c -5.54,0 -10,-4.46 -10,-10 l 0,-40 c 0,-5.54 4.46,-10 10,-10 z"
         id="path3049"
         inkscape:connector-curvature="0"
         clip-path="url(#clipPath6550)"
         transform="translate(196.8024,-2.489118)" />
      <g
         inkscape:export-ydpi="511.35001"
         inkscape:export-xdpi="511.35001"
         inkscape:export-filename="C:\Users\Mark Shilton\Sandbox_Inkscape\mira_flat_pulse.png"
         transform="translate(195.7019,-2.489118)"
         id="g3051">
        <path
           clip-path="url(#clipPath6542)"
           inkscape:connector-curvature="0"
           id="path3053"
           d="m 50.40625,891.01843 c -2.026253,-0.66448 -7.641431,-0.16299 -4.170556,2.67504 2.723771,2.32469 -2.051747,5.40035 -3.742527,7.19053 -2.468214,2.08112 -4.614722,4.48123 -6.84463,6.79027 -1.159748,2.94405 3.566353,4.59306 5.070756,7.04401 8.000906,7.91608 15.824578,16.06534 23.915651,23.86078 2.930064,-0.16286 4.182559,3.22144 6.368249,4.79246 3.339192,2.5989 8.527878,0.56512 12.621807,1.24066 2.581743,-1.80133 4.956452,-6.59324 7.699022,-6.47728 3.236582,1.2346 7.350705,0.27129 10.928428,0.46467 3.42175,-1.42924 5.62936,-5.25342 8.58853,-7.6167 1.74889,-2.21409 5.52706,-4.62236 5.74104,-6.96601 -3.41246,-3.39641 -6.90556,-6.7171 -10.20676,-10.16843 -1.89001,-1.85571 -3.82108,-3.66839 -5.6439,-5.59599 -1.818381,-1.78089 -3.605528,-3.48926 -5.382648,-5.31359 -1.808582,-1.99993 -4.01101,-3.69787 -5.661212,-5.82667 -2.356313,-3.37531 -6.494401,-2.28319 -10.131801,-2.44361 -3.239843,-0.32121 -5.6365,1.72984 -8.677917,-0.33112 -2.917278,0.71375 -6.079693,-0.23085 -8.916495,0.74158 -2.120107,1.05464 -3.492619,-3.67127 -5.928609,-4.06057 -1.875466,-2e-5 -3.751012,4e-5 -5.626428,-3e-5 z m 0.125,0.21875 c 1.691163,-0.014 8.458707,0.0185 3.645546,0.0239 -3.215297,0.007 -6.430175,0.0791 -9.645546,0.0698 1.998018,-0.11243 3.999968,-0.076 6,-0.0937 z m 6.125,0.28125 c 0.420217,-0.10752 0.187525,0.33052 0,0 z m -11.84375,0.0937 c 0.374214,-0.1222 0.136737,0.28377 0,0 z m 12.15625,0.21875 c 0.287748,-0.11609 0.0933,0.24217 0,0 z m -11.84375,0.0937 c 0.255385,-0.10928 0.09317,0.19608 0,0 z m 12.09375,0.1875 c 0.314154,-0.0942 0.194345,0.21513 0,0 z m -11.8125,0.0937 c 0.347088,-0.0879 0.122888,0.23237 0,0 z m 12.125,0.1875 c 0.420217,-0.10752 0.187525,0.33052 0,0 z m -11.84375,0.0937 c 0.21889,-0.0803 0.167054,0.31318 0,0 z m 12.125,0.21875 c 0.311699,-0.12454 0.14386,0.23642 0,0 z m -11.84375,0.0937 c 0.26588,-0.0873 0.110118,0.21544 0,0 z m 12.125,0.1875 c 0.348198,-0.12885 0.179821,0.23067 0,0 z m -11.8125,0.0937 0.126552,0.0621 -0.126552,-0.0621 z m 12.09375,0.1875 c 0.348198,-0.12885 0.179821,0.23067 0,0 z m -11.8125,0.0937 0.126552,0.0621 -0.126552,-0.0621 z m 12.125,0.1875 c 0.388596,-0.099 0.153054,0.25577 0,0 z m -11.84375,0.0937 0.126552,0.0621 -0.126552,-0.0621 z m 12.09375,0.1875 c 0.354069,-0.096 0.245663,0.30898 0,0 z m 0.3125,0.3125 c 0.258232,-0.11739 0.163787,0.25271 0,0 z m 0.28125,0.28125 0.09432,0.0322 -0.09432,-0.0322 z m 2.90625,0.46875 c 2.959116,-0.008 9.500241,-0.0183 10.195891,0.10473 -3.23975,0.0329 -9.461206,-0.42472 -10.82601,0.53093 l 0.283333,-0.29086 0.346786,-0.3448 z m 13.65625,0 c 2.17392,0.001 6.873811,-0.01 7.411454,0.0232 -2.470446,-0.016 -4.94153,0.0528 -7.411454,-0.0232 z m -3.4375,0.34375 c 1.250804,-0.52155 -0.07238,0.49493 0,0 z m 0.71875,0.0312 c 0.707929,-0.29486 0.01356,0.26552 0,0 z m -25.25,0.15625 c -4.224081,4.48103 -8.52031,8.89693 -12.96875,13.15625 4.257004,-4.45019 8.71331,-8.70455 12.96875,-13.15625 z m 24.96875,0.125 c 0.707929,-0.29486 0.01356,0.26552 0,0 z m 0.53125,0.0312 c 0.518524,-0.37692 0.207488,0.322 0,0 z m -0.25,0.25 c 0.871469,-0.27761 -0.09685,0.2676 0,0 z m 0.5625,0.0312 c 0.518524,-0.37692 0.207488,0.322 0,0 z m -0.25,0.25 c 0.825487,-0.33308 -0.118015,0.35924 0,0 z m 0.5625,0.0312 c 0.550059,-0.21835 -0.03322,0.21589 0,0 z m -0.28125,0.28125 c 0.550059,-0.21835 -0.03322,0.21589 0,0 z m -38.15625,12.0625 c 0.359955,0.0262 -0.529183,0.28748 0,0 z"
           style="opacity:0.08399999;fill:url(#linearGradient3844);fill-opacity:1;fill-rule:nonzero;stroke:none"
           inkscape:export-filename="C:\Users\Mark Shilton\Sandbox_Inkscape\mira_flat_pulse.png"
           inkscape:export-xdpi="511.35001"
           inkscape:export-ydpi="511.35001" />
        <path
           clip-path="url(#clipPath6546)"
           style="fill:#000000;fill-opacity:1;fill-rule:nonzero;stroke:#000000;stroke-width:0.40000001;stroke-linejoin:bevel;stroke-miterlimit:4;stroke-opacity:1;stroke-dasharray:none"
           d="m 50.094998,890.71535 c -4.43893,0 -6.22835,0.0395 -6.28125,0.125 -0.0431,0.0698 0.73714,0.9234 1.875,2.0625 1.07269,1.07387 1.96875,2.0037 1.96875,2.0625 0,0.0588 -2.98587,3.07998 -6.625,6.71875 -3.63913,3.63877 -6.625,6.6808 -6.625,6.75 0,0.0692 0.0823,0.1576 0.15625,0.1875 0.074,0.0299 2.64282,0.0575 5.71875,0.0625 l 5.59375,0 7.03125,-7.03125 c 3.86209,-3.86041 7,-7.06755 7,-7.15625 0,-0.0887 -0.79076,-0.97697 -1.78125,-1.96875 l -1.8125,-1.8125 -6.21875,0 z m 0.125,0.21875 6,0 1.6875,1.6875 c 0.93128,0.93265 1.6875,1.7867 1.6875,1.875 0,0.0883 -3.07131,3.22791 -6.84375,7 l -6.875,6.875 -0.0937,0 -5.40625,0 c -3.03244,0 -5.53125,-0.0493 -5.53125,-0.0937 0,-0.0446 2.95296,-3.04707 6.5625,-6.65625 3.60955,-3.60918 6.5625,-6.59625 6.5625,-6.65625 0,-0.06 -0.83948,-0.96575 -1.875,-2 -1.03553,-1.03426 -1.875,-1.8925 -1.875,-1.9375 0,-0.0451 2.70042,-0.0937 6,-0.0937 z m -4.4375,17.4375 6.8125,-6.84375 c 3.74554,-3.76932 6.8125,-6.93358 6.8125,-7.03125 0,-0.0977 -0.74783,-0.923 -1.65625,-1.84375 l -1.65625,-1.6875 -4.65625,0 c -2.5687,0 -5.19348,0.0414 -5.8125,0.0937 l -1.125,0.0937 1.8125,1.90625 1.78125,1.90625 -5.34375,5.40625 c -2.92482,2.98188 -5.84263,5.94457 -6.5,6.59375 l -1.1875,1.1875 2.625,0.0937 c 1.44253,0.0434 3.83496,0.0763 5.34375,0.0937 l 2.75,0.0312 z m 16.21875,-14 -9.96875,10 c -5.93327,5.93353 -9.9816,10.02245 -9.9375,10.09375 l 0,0.0312 c 0.0531,0.086 1.71758,0.0919 5.8125,0.0937 l 5.71875,0.0312 9.9375,-9.96875 c 5.45869,-5.47919 9.90625,-10.0402 9.90625,-10.125 0,-0.13187 -0.81683,-0.15625 -5.71875,-0.15625 l -5.75,0 z m 13.5625,0 0,0.0312 -4.40625,4.40625 -2.5,2.46875 c -0.95073,0.95031 -1.61178,1.6329 -2.4375,2.46875 -0.19211,0.1942 -0.75943,0.75735 -0.875,0.875 -0.17753,0.18073 -0.1732,0.2008 -0.34375,0.375 -1.76796,1.80237 -3.07342,3.14168 -3.15625,3.28125 -0.003,0.005 -0.0937,0.0916 -0.0937,0.0937 0,0.0361 0.0249,0.0568 0.0312,0.0937 0.009,0.0629 0.0162,0.0984 0.0312,0.125 0.004,0.007 -0.005,0.0266 0,0.0312 7.2e-4,7.2e-4 0.0601,-7e-4 0.0625,0 0.0629,0.0187 0.66191,0.0522 1.65625,0.0625 0.16847,0.002 0.11102,-0.002 0.3125,0 1.00429,0.009 2.23706,0 3.65625,0 0.6539,10e-4 0.95323,-4.9e-4 1.625,0 l 3.96875,0 4.71875,-4.71875 c 1.08552,-1.08657 1.46517,-1.46238 2.3125,-2.3125 1.72645,-1.72586 3.03141,-3.04033 4.1875,-4.21875 0.95194,-0.97033 1.8745,-1.90563 2.3125,-2.375 0.14664,-0.15714 0.13831,-0.15778 0.21875,-0.25 0.0581,-0.0646 0.0276,-0.0527 0.0625,-0.0937 0.0496,-0.0601 0.19188,-0.21167 0.1875,-0.21875 -0.001,-0.002 -0.0284,0.002 -0.0312,0 -0.009,-0.009 -0.1956,-0.0202 -0.3125,-0.0312 -0.0619,-0.004 -0.20217,-0.0274 -0.28125,-0.0312 -0.0247,-10e-4 -0.22167,0.001 -0.25,0 -0.86071,-0.032 -2.38267,-0.0625 -4.9375,-0.0625 l -5.71875,0 z m -13.4375,0.21875 5.46875,0 c 3.0029,0 5.4375,0.0494 5.4375,0.0937 0,0.0445 -4.41286,4.4756 -9.8125,9.875 l -9.75,9.71875 -0.0625,0.0937 -5.46875,0 c -3.0029,0 -5.4375,-0.018 -5.4375,-0.0625 0,-0.0445 4.41285,-4.50685 9.8125,-9.90625 l 9.8125,-9.8125 z m -8.65625,19.6875 9.625,-9.6875 c 7.54596,-7.62532 9.54405,-9.73308 9.34375,-9.8125 -0.14014,-0.0556 -2.52182,-0.0881 -5.28125,-0.0937 l -5.03125,-0.0312 -5.53125,5.5625 c -3.04272,3.06334 -7.40663,7.47949 -9.71875,9.8125 l -4.21875,4.25 5.40625,0 5.40625,0 z m 22.3125,-19.6875 3.75,0 1.71875,0 c 1.25562,0.003 2.77,0.0256 3.15625,0.0312 -0.6084,-0.009 -2.77602,2.7e-4 -4.84375,0 l -3.78125,0 0,-0.0312 z m 10.90625,0.0937 c 4.7e-4,4.4e-4 0.0312,-4.3e-4 0.0312,0 0,2.1e-4 -0.0311,0.0309 -0.0312,0.0312 0.002,-0.006 0.003,-0.0285 0,-0.0312 z m -0.5625,0.0937 c 0.002,0.002 0.0301,-0.002 0.0312,0 0.008,0.0115 4.6e-4,0.0451 0,0.0625 3.6e-4,-0.0243 -0.0154,-0.0505 -0.0312,-0.0625 z m -0.0937,0.28125 c -0.0916,0.13439 -0.35192,0.41999 -0.59375,0.6875 0.27718,-0.30426 0.49964,-0.54899 0.59375,-0.6875 z m -6.75,7.09375 -0.9375,1 -5.25,5.21875 6.1875,-6.21875 z m -16.28125,5.25 c -0.8916,0.8993 -0.93435,0.96875 -0.90625,0.96875 l -0.0937,0 1,-0.96875 z"
           id="path3055"
           inkscape:connector-curvature="0"
           inkscape:export-filename="C:\Users\Mark Shilton\Sandbox_Inkscape\mira_flat_pulse.png"
           inkscape:export-xdpi="511.35001"
           inkscape:export-ydpi="511.35001" />
      </g>
    </g>
    <g
       id="g3875">
      <path
         style="opacity:0.14634148;fill:url(#linearGradient3867);fill-opacity:1;stroke:none"
         d="m 332.14303,868.62772 c -6.04075,-0.20845 -10.75553,5.70731 -10,11.52205 0.0386,13.19079 -0.0776,26.38678 0.0587,39.57431 0.49233,5.26215 5.47627,8.08822 8.62879,11.74739 8.04365,7.99487 16.10854,16.14664 24,23.9651 2.81429,3.03404 7.20776,3.018 11.0588,2.87865 12.32351,-0.0409 24.65214,0.0823 36.9724,-0.0625 5.59564,-0.40977 9.63685,-6.0048 8.9685,-11.4595 -0.0412,-13.16901 0.0827,-26.34388 -0.0625,-39.5092 -0.26389,-4.249 -3.58889,-6.65924 -6.24545,-9.4375 -8.81229,-8.76984 -17.73798,-17.80801 -26.75527,-26.70758 -3.90245,-3.63473 -9.43309,-2.22903 -14.23421,-2.51122 -10.79659,0 -21.59318,0 -32.38977,0 z"
         id="path3848"
         inkscape:connector-curvature="0"
         inkscape:export-filename="C:\Users\Mark Shilton\Sandbox_Inkscape\mira_flat_pulse.png"
         inkscape:export-xdpi="511.35001"
         inkscape:export-ydpi="511.35001" />
      <path
         clip-path="url(#clipPath6550)"
         inkscape:connector-curvature="0"
         id="path3850"
         d="m 40,872.36218 40,0 c 5.54,0 10,4.46 10,10 l 0,40 c 0,5.54 -4.46,10 -10,10 l -40,0 c -5.54,0 -10,-4.46 -10,-10 l 0,-40 c 0,-5.54 4.46,-10 10,-10 z"
         style="fill:#a3a3a3;fill-opacity:1;stroke:none"
         inkscape:export-filename="C:\Users\Mark Shilton\Sandbox_Inkscape\mira_flat_pulse.png"
         inkscape:export-xdpi="511.35001"
         inkscape:export-ydpi="511.35001"
         transform="translate(291.83053,-4.0469565)" />
      <g
         id="g3852"
         transform="translate(290.73003,-4.0469565)"
         inkscape:export-filename="C:\Users\Mark Shilton\Sandbox_Inkscape\mira_flat_pulse.png"
         inkscape:export-xdpi="511.35001"
         inkscape:export-ydpi="511.35001">
        <path
           inkscape:export-ydpi="511.35001"
           inkscape:export-xdpi="511.35001"
           inkscape:export-filename="C:\Users\Mark Shilton\Sandbox_Inkscape\mira_flat_pulse.png"
           style="opacity:0.08399999;fill:url(#linearGradient3860);fill-opacity:1;fill-rule:nonzero;stroke:none"
           d="m 50.40625,891.01843 c -2.026253,-0.66448 -7.641431,-0.16299 -4.170556,2.67504 2.723771,2.32469 -2.051747,5.40035 -3.742527,7.19053 -2.468214,2.08112 -4.614722,4.48123 -6.84463,6.79027 -1.159748,2.94405 3.566353,4.59306 5.070756,7.04401 8.000906,7.91608 15.824578,16.06534 23.915651,23.86078 2.930064,-0.16286 4.182559,3.22144 6.368249,4.79246 3.339192,2.5989 8.527878,0.56512 12.621807,1.24066 2.581743,-1.80133 4.956452,-6.59324 7.699022,-6.47728 3.236582,1.2346 7.350705,0.27129 10.928428,0.46467 3.42175,-1.42924 5.62936,-5.25342 8.58853,-7.6167 1.74889,-2.21409 5.52706,-4.62236 5.74104,-6.96601 -3.41246,-3.39641 -6.90556,-6.7171 -10.20676,-10.16843 -1.89001,-1.85571 -3.82108,-3.66839 -5.6439,-5.59599 -1.818381,-1.78089 -3.605528,-3.48926 -5.382648,-5.31359 -1.808582,-1.99993 -4.01101,-3.69787 -5.661212,-5.82667 -2.356313,-3.37531 -6.494401,-2.28319 -10.131801,-2.44361 -3.239843,-0.32121 -5.6365,1.72984 -8.677917,-0.33112 -2.917278,0.71375 -6.079693,-0.23085 -8.916495,0.74158 -2.120107,1.05464 -3.492619,-3.67127 -5.928609,-4.06057 -1.875466,-2e-5 -3.751012,4e-5 -5.626428,-3e-5 z m 0.125,0.21875 c 1.691163,-0.014 8.458707,0.0185 3.645546,0.0239 -3.215297,0.007 -6.430175,0.0791 -9.645546,0.0698 1.998018,-0.11243 3.999968,-0.076 6,-0.0937 z m 6.125,0.28125 c 0.420217,-0.10752 0.187525,0.33052 0,0 z m -11.84375,0.0937 c 0.374214,-0.1222 0.136737,0.28377 0,0 z m 12.15625,0.21875 c 0.287748,-0.11609 0.0933,0.24217 0,0 z m -11.84375,0.0937 c 0.255385,-0.10928 0.09317,0.19608 0,0 z m 12.09375,0.1875 c 0.314154,-0.0942 0.194345,0.21513 0,0 z m -11.8125,0.0937 c 0.347088,-0.0879 0.122888,0.23237 0,0 z m 12.125,0.1875 c 0.420217,-0.10752 0.187525,0.33052 0,0 z m -11.84375,0.0937 c 0.21889,-0.0803 0.167054,0.31318 0,0 z m 12.125,0.21875 c 0.311699,-0.12454 0.14386,0.23642 0,0 z m -11.84375,0.0937 c 0.26588,-0.0873 0.110118,0.21544 0,0 z m 12.125,0.1875 c 0.348198,-0.12885 0.179821,0.23067 0,0 z m -11.8125,0.0937 0.126552,0.0621 -0.126552,-0.0621 z m 12.09375,0.1875 c 0.348198,-0.12885 0.179821,0.23067 0,0 z m -11.8125,0.0937 0.126552,0.0621 -0.126552,-0.0621 z m 12.125,0.1875 c 0.388596,-0.099 0.153054,0.25577 0,0 z m -11.84375,0.0937 0.126552,0.0621 -0.126552,-0.0621 z m 12.09375,0.1875 c 0.354069,-0.096 0.245663,0.30898 0,0 z m 0.3125,0.3125 c 0.258232,-0.11739 0.163787,0.25271 0,0 z m 0.28125,0.28125 0.09432,0.0322 -0.09432,-0.0322 z m 2.90625,0.46875 c 2.959116,-0.008 9.500241,-0.0183 10.195891,0.10473 -3.23975,0.0329 -9.461206,-0.42472 -10.82601,0.53093 l 0.283333,-0.29086 0.346786,-0.3448 z m 13.65625,0 c 2.17392,0.001 6.873811,-0.01 7.411454,0.0232 -2.470446,-0.016 -4.94153,0.0528 -7.411454,-0.0232 z m -3.4375,0.34375 c 1.250804,-0.52155 -0.07238,0.49493 0,0 z m 0.71875,0.0312 c 0.707929,-0.29486 0.01356,0.26552 0,0 z m -25.25,0.15625 c -4.224081,4.48103 -8.52031,8.89693 -12.96875,13.15625 4.257004,-4.45019 8.71331,-8.70455 12.96875,-13.15625 z m 24.96875,0.125 c 0.707929,-0.29486 0.01356,0.26552 0,0 z m 0.53125,0.0312 c 0.518524,-0.37692 0.207488,0.322 0,0 z m -0.25,0.25 c 0.871469,-0.27761 -0.09685,0.2676 0,0 z m 0.5625,0.0312 c 0.518524,-0.37692 0.207488,0.322 0,0 z m -0.25,0.25 c 0.825487,-0.33308 -0.118015,0.35924 0,0 z m 0.5625,0.0312 c 0.550059,-0.21835 -0.03322,0.21589 0,0 z m -0.28125,0.28125 c 0.550059,-0.21835 -0.03322,0.21589 0,0 z m -38.15625,12.0625 c 0.359955,0.0262 -0.529183,0.28748 0,0 z"
           id="path3854"
           inkscape:connector-curvature="0"
           clip-path="url(#clipPath6542)" />
        <path
           inkscape:export-ydpi="511.35001"
           inkscape:export-xdpi="511.35001"
           inkscape:export-filename="C:\Users\Mark Shilton\Sandbox_Inkscape\mira_flat_pulse.png"
           inkscape:connector-curvature="0"
           id="path3856"
           d="m 50.094998,890.71535 c -4.43893,0 -6.22835,0.0395 -6.28125,0.125 -0.0431,0.0698 0.73714,0.9234 1.875,2.0625 1.07269,1.07387 1.96875,2.0037 1.96875,2.0625 0,0.0588 -2.98587,3.07998 -6.625,6.71875 -3.63913,3.63877 -6.625,6.6808 -6.625,6.75 0,0.0692 0.0823,0.1576 0.15625,0.1875 0.074,0.0299 2.64282,0.0575 5.71875,0.0625 l 5.59375,0 7.03125,-7.03125 c 3.86209,-3.86041 7,-7.06755 7,-7.15625 0,-0.0887 -0.79076,-0.97697 -1.78125,-1.96875 l -1.8125,-1.8125 -6.21875,0 z m 0.125,0.21875 6,0 1.6875,1.6875 c 0.93128,0.93265 1.6875,1.7867 1.6875,1.875 0,0.0883 -3.07131,3.22791 -6.84375,7 l -6.875,6.875 -0.0937,0 -5.40625,0 c -3.03244,0 -5.53125,-0.0493 -5.53125,-0.0937 0,-0.0446 2.95296,-3.04707 6.5625,-6.65625 3.60955,-3.60918 6.5625,-6.59625 6.5625,-6.65625 0,-0.06 -0.83948,-0.96575 -1.875,-2 -1.03553,-1.03426 -1.875,-1.8925 -1.875,-1.9375 0,-0.0451 2.70042,-0.0937 6,-0.0937 z m -4.4375,17.4375 6.8125,-6.84375 c 3.74554,-3.76932 6.8125,-6.93358 6.8125,-7.03125 0,-0.0977 -0.74783,-0.923 -1.65625,-1.84375 l -1.65625,-1.6875 -4.65625,0 c -2.5687,0 -5.19348,0.0414 -5.8125,0.0937 l -1.125,0.0937 1.8125,1.90625 1.78125,1.90625 -5.34375,5.40625 c -2.92482,2.98188 -5.84263,5.94457 -6.5,6.59375 l -1.1875,1.1875 2.625,0.0937 c 1.44253,0.0434 3.83496,0.0763 5.34375,0.0937 l 2.75,0.0312 z m 16.21875,-14 -9.96875,10 c -5.93327,5.93353 -9.9816,10.02245 -9.9375,10.09375 l 0,0.0312 c 0.0531,0.086 1.71758,0.0919 5.8125,0.0937 l 5.71875,0.0312 9.9375,-9.96875 c 5.45869,-5.47919 9.90625,-10.0402 9.90625,-10.125 0,-0.13187 -0.81683,-0.15625 -5.71875,-0.15625 l -5.75,0 z m 13.5625,0 0,0.0312 -4.40625,4.40625 -2.5,2.46875 c -0.95073,0.95031 -1.61178,1.6329 -2.4375,2.46875 -0.19211,0.1942 -0.75943,0.75735 -0.875,0.875 -0.17753,0.18073 -0.1732,0.2008 -0.34375,0.375 -1.76796,1.80237 -3.07342,3.14168 -3.15625,3.28125 -0.003,0.005 -0.0937,0.0916 -0.0937,0.0937 0,0.0361 0.0249,0.0568 0.0312,0.0937 0.009,0.0629 0.0162,0.0984 0.0312,0.125 0.004,0.007 -0.005,0.0266 0,0.0312 7.2e-4,7.2e-4 0.0601,-7e-4 0.0625,0 0.0629,0.0187 0.66191,0.0522 1.65625,0.0625 0.16847,0.002 0.11102,-0.002 0.3125,0 1.00429,0.009 2.23706,0 3.65625,0 0.6539,10e-4 0.95323,-4.9e-4 1.625,0 l 3.96875,0 4.71875,-4.71875 c 1.08552,-1.08657 1.46517,-1.46238 2.3125,-2.3125 1.72645,-1.72586 3.03141,-3.04033 4.1875,-4.21875 0.95194,-0.97033 1.8745,-1.90563 2.3125,-2.375 0.14664,-0.15714 0.13831,-0.15778 0.21875,-0.25 0.0581,-0.0646 0.0276,-0.0527 0.0625,-0.0937 0.0496,-0.0601 0.19188,-0.21167 0.1875,-0.21875 -0.001,-0.002 -0.0284,0.002 -0.0312,0 -0.009,-0.009 -0.1956,-0.0202 -0.3125,-0.0312 -0.0619,-0.004 -0.20217,-0.0274 -0.28125,-0.0312 -0.0247,-10e-4 -0.22167,0.001 -0.25,0 -0.86071,-0.032 -2.38267,-0.0625 -4.9375,-0.0625 l -5.71875,0 z m -13.4375,0.21875 5.46875,0 c 3.0029,0 5.4375,0.0494 5.4375,0.0937 0,0.0445 -4.41286,4.4756 -9.8125,9.875 l -9.75,9.71875 -0.0625,0.0937 -5.46875,0 c -3.0029,0 -5.4375,-0.018 -5.4375,-0.0625 0,-0.0445 4.41285,-4.50685 9.8125,-9.90625 l 9.8125,-9.8125 z m -8.65625,19.6875 9.625,-9.6875 c 7.54596,-7.62532 9.54405,-9.73308 9.34375,-9.8125 -0.14014,-0.0556 -2.52182,-0.0881 -5.28125,-0.0937 l -5.03125,-0.0312 -5.53125,5.5625 c -3.04272,3.06334 -7.40663,7.47949 -9.71875,9.8125 l -4.21875,4.25 5.40625,0 5.40625,0 z m 22.3125,-19.6875 3.75,0 1.71875,0 c 1.25562,0.003 2.77,0.0256 3.15625,0.0312 -0.6084,-0.009 -2.77602,2.7e-4 -4.84375,0 l -3.78125,0 0,-0.0312 z m 10.90625,0.0937 c 4.7e-4,4.4e-4 0.0312,-4.3e-4 0.0312,0 0,2.1e-4 -0.0311,0.0309 -0.0312,0.0312 0.002,-0.006 0.003,-0.0285 0,-0.0312 z m -0.5625,0.0937 c 0.002,0.002 0.0301,-0.002 0.0312,0 0.008,0.0115 4.6e-4,0.0451 0,0.0625 3.6e-4,-0.0243 -0.0154,-0.0505 -0.0312,-0.0625 z m -0.0937,0.28125 c -0.0916,0.13439 -0.35192,0.41999 -0.59375,0.6875 0.27718,-0.30426 0.49964,-0.54899 0.59375,-0.6875 z m -6.75,7.09375 -0.9375,1 -5.25,5.21875 6.1875,-6.21875 z m -16.28125,5.25 c -0.8916,0.8993 -0.93435,0.96875 -0.90625,0.96875 l -0.0937,0 1,-0.96875 z"
           style="fill:#000000;fill-opacity:1;fill-rule:nonzero;stroke:#000000;stroke-width:0.40000001;stroke-linejoin:bevel;stroke-miterlimit:4;stroke-opacity:1;stroke-dasharray:none"
           clip-path="url(#clipPath6546)" />
      </g>
    </g>
  </g>
</svg>
